<?xml version="1.0" encoding="UTF-8" standalone="no"?>
<svg width="100%" height="100%" viewBox="0 0 3784 3746" version="1.1" xmlns="http://www.w3.org/2000/svg" xmlns:xlink="http://www.w3.org/1999/xlink" xml:space="preserve" style="fill-rule:evenodd;clip-rule:evenodd;stroke-linejoin:round;stroke-miterlimit:2;"><g><path d="M1906.251,129.167c957.804,0 1735.417,777.618 1735.417,1735.417c0,957.799 -777.613,1735.417 -1735.417,1735.417c-957.804,0 -1735.417,-777.618 -1735.417,-1735.417c0,-957.799 777.613,-1735.417 1735.417,-1735.417Zm0,105.315c899.678,0 1630.105,730.42 1630.105,1630.102c0,899.683 -730.428,1630.102 -1630.105,1630.102c-899.678,0 -1630.105,-730.42 -1630.105,-1630.102c0,-899.683 730.428,-1630.102 1630.105,-1630.102Z" style="fill:#fff;"/><path d="M1906.251,118.755c118.691,0.559 557.796,4.367 1001.795,316.219c499.207,350.625 792.179,943.898 737.597,1580.437c-79.854,931.346 -890.419,1649.409 -1845.874,1591.808c-952.472,-57.424 -1694.677,-878.307 -1636.153,-1849.12c54.777,-908.506 805.648,-1630.511 1725.72,-1639.263c8.462,-0.08 8.445,-0.044 16.915,-0.08Zm-0.008,20.825c-117.041,0.559 -553.7,4.163 -994.057,315.429c-490.68,346.844 -778.353,931.426 -724.575,1558.626c78.894,920.09 879.682,1629.712 1823.87,1572.785c940.994,-56.732 1674.446,-867.726 1616.604,-1827.061c-54.111,-897.597 -795.983,-1611.044 -1705.114,-1619.699c-8.364,-0.08 -8.356,-0.036 -16.712,-0.08l-0.016,0Zm0.008,84.481c110.863,0.533 528.965,3.755 949.423,302.841c466.344,331.735 737.564,888.96 684.6,1484.603c-77.789,874.694 -841.437,1547.255 -1739.302,1490.275c-892.549,-56.652 -1587.122,-826.813 -1532.231,-1737.254c51.469,-853.71 757.048,-1532.164 1621.611,-1540.384c7.958,-0.08 7.941,-0.044 15.899,-0.08Zm-0.008,20.834c-109.213,0.524 -524.649,3.542 -941.303,301.821c-459.898,329.223 -725.624,880.438 -671.497,1468.056c79.317,860.998 831.952,1522.373 1716.77,1466.21c883.096,-56.048 1569.614,-819.516 1512.438,-1720.362c-53.339,-840.368 -748.814,-1507.54 -1600.705,-1515.645c-7.852,-0.08 -7.844,-0.044 -15.688,-0.08l-0.016,0Z"/></g><g><path d="M1438.803,295.672c-12.154,3.808 -24.358,7.225 -36.642,10.579c-181.046,50.45 -342.667,140.525 -489.663,256.25c-4.729,3.617 -9.467,7.229 -14.208,10.838c-31.088,23.804 -60.121,49.1 -88.492,76.075c-9.787,9.288 -19.808,18.208 -30.029,27.017c-47.175,41.029 -91.921,86.271 -129.771,136.071l-9.862,12.612c-36.404,46.646 -71.717,94.129 -104.067,143.683c-6.904,10.371 -6.904,10.371 -14.062,19.304c-6.525,7.879 -6.525,7.879 -5.342,20.233l-8.333,0c-72.363,128.883 -129.867,259.35 -171.571,401.267c-2.963,9.7 -6.238,19.175 -9.679,28.713c-8.867,26.221 -13.754,53.533 -19.196,80.629c-1.883,9.383 -3.804,18.758 -5.729,28.138c-46.125,225.887 -40.429,470.354 14.508,694.587l4.167,4.167l1.562,12.758c2.258,14.229 6,25.658 11.146,38.983c4.85,13.171 9.146,26.479 13.45,39.842c40.4,125.208 84.954,253.087 159.808,362.396c5.158,7.708 9.846,15.483 14.375,23.575c8.579,15.146 17.846,29.604 27.525,44.058l5.475,8.192c17.175,25.479 35.404,50.017 54.158,74.362l7.067,9.375c63.638,83.625 137.496,164.637 217.933,232.292l12.321,10.921c157.55,139.142 343.025,235.533 539.754,306.121c10.737,3.904 21.387,8.004 32.042,12.125c29.742,10.687 60.088,18.125 90.883,25l12.942,2.9c61.992,13.667 123.758,24.438 186.8,31.733l8.804,1.025c63.671,7.3 126.892,10.942 190.933,10.696l9.442,-0.025c170.479,-0.504 344.658,-25.317 503.842,-88.517c21.475,-8.479 42.983,-16.779 64.696,-24.625c150.908,-54.729 287.396,-130.733 414.208,-229.021l6.875,-5.3c80.717,-62.3 160.967,-128.662 226.458,-207.2l5.642,-6.733c76.258,-91.279 143.583,-190.058 202.692,-293.267l8.204,-14.325c39.429,-70.571 68.708,-146.563 96.692,-222.242c2.213,-5.967 4.454,-11.929 6.725,-17.875c36.713,-96.246 57.458,-199.158 70.296,-301.171c0.988,-7.687 2.033,-15.367 3.125,-23.042c19.783,-140.188 20.567,-289.817 -1.708,-429.679l-1.283,-8.267c-12.062,-77.537 -26.8,-153.8 -48.717,-229.233l-2.442,-8.629c-7.179,-25.333 -15.404,-49.329 -26.579,-73.158c-4.917,-11.271 -8.738,-22.696 -12.646,-34.358c-40.167,-113.446 -96.375,-227.658 -166.667,-325.521c-3.4,-4.875 -6.796,-9.75 -10.188,-14.633c-32.504,-46.508 -66.846,-91.675 -105.371,-133.383c-5.087,-5.558 -10.142,-11.146 -15.021,-16.892c-23.008,-27.017 -48.038,-51.983 -73.113,-77.058c-7.713,-7.721 -15.387,-15.475 -23.067,-23.229c-28.7,-28.833 -57.958,-55.408 -89.908,-80.638c-6.612,-5.625 -13.213,-11.263 -19.792,-16.929c-60.846,-49.646 -127.525,-92.529 -195.517,-131.654c-9.238,-5.321 -18.417,-10.738 -27.596,-16.163c-116.887,-68.092 -246,-112.896 -375.858,-148.996c-9.108,-2.563 -18.175,-5.225 -27.233,-7.971c-35.646,-10.704 -71.504,-18.037 -108.171,-24.121l-11.988,-2.021c-243.442,-40.617 -508.188,-36.692 -745.042,39.358Z"/></g><g><path d="M2145.833,2112.5c27.625,25.55 41.979,56.688 54.167,91.667c0.954,2.621 1.908,5.242 2.892,7.942c32.817,90.925 46.554,188 61.075,283.25c3.754,24.387 7.617,47.821 15.2,71.308c1.604,5.467 3.2,10.933 4.783,16.408c1.7,5.642 3.404,11.283 5.112,16.925c0.817,2.804 1.633,5.608 2.475,8.496c6.05,19.833 13.512,36.742 25.129,54.004c14.6,3.842 26.671,4.167 41.667,4.167l0,-8.333c2.75,-1.375 5.5,-2.75 8.333,-4.167c1.375,-4.125 2.75,-8.25 4.167,-12.5l8.333,0c1.417,-4.771 1.417,-4.771 2.867,-9.633c4.492,-12.633 9.463,-24.333 15.1,-36.458c7.512,-16.212 14.179,-32.446 20.317,-49.221c9.625,-25.329 20.583,-49.921 32.029,-74.479c1.662,-3.646 3.321,-7.292 5.033,-11.05c17.358,-36.688 36.992,-68.442 74.654,-85.825c30.496,-10.167 64.654,-7.054 93.717,6.167c28.487,17.263 51.8,41.054 71.387,67.792c20.062,27.162 48.783,44.629 80.729,55.208c11.179,1.113 21.358,1.663 32.5,1.538c4.658,0.025 4.658,0.025 9.413,0.046c6.692,0.029 13.387,0.025 20.079,0c10.596,-0.037 21.192,0.004 31.788,0.071c30.108,0.167 60.217,0.171 90.325,0.163c18.458,0 36.917,0.079 55.375,0.204c10.433,0.046 20.863,-0.004 31.296,-0.058c6.396,0.037 12.787,0.079 19.179,0.129c4.342,-0.062 4.342,-0.062 8.771,-0.125c13.938,0.208 21.042,1.383 32.242,9.963c8.325,11.346 8.642,18.121 8.358,32.079c-0.008,3.962 -0.013,7.921 -0.017,11.996c-1.808,10.662 -1.808,10.662 -6.35,18.067c-18.771,12.017 -44.75,9.787 -66.379,9.8c-2.762,0.008 -5.521,0.017 -8.367,0.025c-9.021,0.017 -18.042,0.004 -27.058,-0.008c-6.304,0 -12.604,0.004 -18.904,0.012c-13.146,0.004 -26.296,-0.004 -39.442,-0.025c-16.883,-0.021 -33.767,-0.008 -50.65,0.017c-12.983,0.017 -25.967,0.008 -38.946,0c-6.233,-0.004 -12.463,0 -18.692,0.008c-8.667,0.013 -17.333,-0.004 -26,-0.029c-4.938,0 -9.875,-0.004 -14.958,-0.008c-11.062,-0.529 -11.062,-0.529 -15.229,-4.696c-5.071,-0.171 -10.142,-0.342 -15.367,-0.521c-68.904,-7.133 -120.479,-62.171 -161.846,-112.483c-12.133,-14.15 -14.208,-15.663 -32.421,-17.725c-15.254,1.55 -21.25,3.179 -31.088,14.829c-24.646,36.492 -39.233,79.408 -55.796,119.925c-14.337,34.667 -30.658,67.621 -49.317,100.142l-8.333,0c-0.388,3.479 -0.388,3.479 -0.783,7.033c-4.833,13.763 -13.392,20.963 -24.217,30.467l-8.333,0l0,8.333c-45.204,14.183 -90.758,13.775 -133.333,-8.333c-9.417,-6.504 -13.971,-11.371 -20.833,-20.833l0,-16.667l-8.333,0c-13.079,-31.587 -23.613,-62.438 -30.517,-95.946c-2.542,-12.287 -2.542,-12.287 -6.708,-23.383c-5.287,-16.675 -8.525,-33.292 -11.667,-50.479c-0.992,-5.287 -0.992,-5.287 -2.004,-10.679c-1.412,-7.542 -2.817,-15.083 -4.217,-22.629c-3.675,-19.783 -7.433,-39.55 -11.179,-59.317c-0.746,-3.933 -1.492,-7.867 -2.258,-11.921c-6.442,-34.013 -12.938,-68.004 -19.733,-101.946c-0.887,-4.625 -1.775,-9.25 -2.688,-14.017c-7.696,-37.887 -17.296,-79.304 -42.363,-109.683c-17.562,-1.858 -17.562,-1.858 -33.333,4.167c-11.979,17.942 -18.329,37.975 -25,58.333c-1.042,3.096 -2.083,6.192 -3.154,9.379c-23.446,70.613 -37.992,143.092 -51.042,216.221c-54.429,304.888 -54.429,304.888 -123.708,359.1c-22,14.833 -47.725,17.821 -73.592,13.754c-33.275,-9.237 -56.008,-30.717 -74.288,-59.392c-11.175,-19.933 -19.446,-40.654 -27.246,-62.108c-2.921,-7.967 -5.917,-15.912 -9.2,-23.742c-11.025,-26.317 -18.579,-52.525 -25.012,-80.296c-1.067,-4.5 -2.138,-8.996 -3.238,-13.629c-6.467,-27.729 -12.004,-55.512 -17,-83.542c-7.458,-41.692 -16.712,-81.85 -30.021,-122.1c-1.333,-4.071 -2.667,-8.142 -4.042,-12.338c-8.104,-23.429 -17.025,-47.325 -33.458,-66.308c-14.283,-6.558 -14.283,-6.558 -29.167,-4.167c-48.012,40.612 -62.312,126.629 -81.117,184.233c-27.308,83.404 -27.308,83.404 -47.442,112.783c-5.542,7.617 -5.542,7.617 -8.942,19.65c-22.579,27.217 -48.879,37.246 -83.333,41.667c-30.95,2.021 -51.567,-9.808 -75,-29.167c-20.842,-18.796 -40.367,-37.896 -54.167,-62.5l0,-8.333l-8.333,0c-2.233,-4.812 -4.467,-9.625 -6.771,-14.583c-12.254,-24.162 -24.254,-45.7 -47.917,-59.896c-29.283,-0.946 -53.3,16.483 -77.571,31.592c-9.408,5.387 -9.408,5.387 -17.742,5.387l0,8.333c-2.175,0.708 -4.35,1.417 -6.592,2.15c-22.312,7.346 -44.392,15.208 -66.408,23.404c-17.237,6.025 -32.412,8.425 -50.712,9.096c-4.629,0.175 -9.254,0.35 -14.025,0.529c-4.821,0.167 -9.642,0.329 -14.604,0.496c-4.708,0.183 -9.417,0.362 -14.267,0.546c-39.625,1.438 -79.208,2.25 -118.808,-0.021c-4.854,-0.246 -9.713,-0.487 -14.712,-0.733c-12.371,-2.133 -12.371,-2.133 -20.088,-7.425c-5.787,-8.721 -7.258,-15.054 -8.429,-25.438c-0.421,-3.125 -0.838,-6.25 -1.271,-9.471c1.083,-14.167 3.7,-19.908 13.25,-30.633c14.046,-3.05 27.925,-2.417 42.237,-2.033c4.142,0.029 8.287,0.058 12.558,0.088c13.246,0.117 26.487,0.379 39.737,0.646c8.975,0.104 17.95,0.196 26.925,0.283c22.017,0.229 44.029,0.579 66.042,1.017l0,-8.333c2.838,-0.517 5.671,-1.033 8.592,-1.562c36.542,-7.775 66.662,-22.696 99.433,-39.838c14.254,-7.312 28.75,-14.092 43.275,-20.842c2.621,-1.225 5.237,-2.45 7.933,-3.713c30.763,-14.292 60.925,-20.171 94.104,-9.438c22.354,10.583 39.054,23.179 54.996,42.058l0,8.333l8.333,0l0,12.5l8.333,0l0,12.5l8.333,0c2.067,3.825 4.137,7.65 6.267,11.588c26.204,52.575 26.204,52.575 71.6,85.287c14.121,0.283 14.121,0.283 23.433,-9.117c2.321,-2.833 4.642,-5.671 7.033,-8.592l8.333,0c0.742,-5.271 0.742,-5.271 1.496,-10.65c2.842,-15.258 7.138,-29.229 12.079,-43.942c0.933,-2.792 1.862,-5.583 2.825,-8.463c3.021,-9.025 6.067,-18.037 9.121,-27.05c2.1,-6.225 4.196,-12.454 6.292,-18.679c4.15,-12.296 8.312,-24.592 12.483,-36.879c4.837,-14.254 9.604,-28.529 14.346,-42.812c20.367,-60.667 40.904,-116.713 99.692,-149.025c26.271,-11.029 53.196,-10.575 79.883,-0.879c48.2,22.287 69.529,69.346 87.596,116.688c25.846,70.85 40.363,144.112 54.388,218.004c11.596,60.904 26.375,120.037 57.3,174.521c13.196,6.6 22.979,5.921 37.5,4.167c16.679,-17.154 22.054,-39.162 29.054,-61.688c3.188,-9.925 6.642,-19.396 10.463,-29.067c7.129,-18.883 11.425,-37.933 15.433,-57.683c1.287,-6.208 1.287,-6.208 2.604,-12.546c6.196,-30.667 11.562,-61.429 16.696,-92.287c54.933,-329.321 54.933,-329.321 129.479,-390.575c36.829,-25.833 79.033,-25.35 117.104,-1.988Z" style="fill:#cb8a27;fill-rule:nonzero;"/></g><g><g><path d="M2808.333,1470.833c45.904,37.15 75.525,91.65 83.333,150c4.2,67.438 -13.492,130.2 -57.033,182.812c-44.742,46.204 -107.05,75.338 -171.608,76.529c-73.242,0.275 -132.862,-20.737 -185.404,-72.721c-47.158,-50.029 -63.233,-108.279 -62.092,-175.588c2.379,-57.908 31.488,-113.004 73.483,-152.292c96.742,-76.967 218.379,-80.054 319.321,-8.742Zm-87.5,83.333c-50.525,-35.546 -117.792,-28.542 -156.854,20.363c-17.921,27.942 -26.513,59.083 -22.312,92.137l4.167,12.5c6.996,21.508 14.208,40.946 29.688,57.813c22.029,19.912 48.167,30.496 77.863,30.987c35.312,-1.858 61.246,-12.479 85.729,-38.542c22.529,-28.804 25.929,-59.192 24.688,-94.983c-3.258,-34.083 -17.267,-57.579 -42.967,-80.275Z" style="fill:#fff;"/></g><g><path d="M520.833,1429.167l122.133,-0.783l38.288,-0.342c10.137,-0.037 20.279,-0.071 30.417,-0.096l15.646,-0.192c54.908,-0.017 108.004,12.025 149.246,50.371c30.792,32.846 37.763,70.642 37.354,114.338c-3.608,40.425 -20.621,76.721 -51.417,103.371c-10.75,7.696 -21.704,14.55 -33.333,20.833c6.146,17.904 15.662,32.062 26.825,47.133c3.721,5.125 7.433,10.254 11.146,15.383l5.904,8.142c10.708,14.875 21.2,29.904 31.646,44.967l6.125,8.729c14.188,20.512 14.188,20.512 14.188,29.812c-100.296,17.7 -100.296,17.7 -141.667,0c-27.333,-20.529 -43.8,-53.071 -59.175,-82.854l-4.771,-8.962c-4.513,-8.688 -4.513,-8.688 -8.167,-17.188c-4.192,-9.271 -4.192,-9.271 -15.388,-20.163l-50,-4.167l0,133.333l-125,0l0,-441.667Zm125,108.333l0,100c11.933,0.238 23.871,0.463 35.808,0.608l14.713,0.175c24.167,0.529 46.092,1.962 69.013,-6.367c12.871,-9.242 16.962,-16.983 22.133,-31.917c1.546,-14.942 2.233,-24.821 -4.688,-38.283c-23.883,-23.087 -38.858,-26.067 -72.037,-25.683l-14.421,0.425c-16.846,0.262 -33.679,0.592 -50.521,1.042Z" style="fill:#fff;"/></g><g><path d="M1954.167,1429.167l125,0l0,162.5l154.167,0l0,-162.5l125,0l0,441.667l-125,0l0,-166.667l-154.167,0l0,166.667l-125,0l0,-441.667Z" style="fill:#fff;fill-rule:nonzero;"/></g><g><path d="M1879.167,1470.833c4.125,6.188 4.125,6.188 8.333,12.5c-7.371,10.767 -14.754,21.529 -22.133,32.292c-2.083,3.042 -4.167,6.079 -6.308,9.212c-3.042,4.429 -3.042,4.429 -6.146,8.95c-1.854,2.708 -3.708,5.413 -5.621,8.2c-5.871,8.362 -11.954,16.537 -18.125,24.679c-10.912,-4.3 -21.733,-8.725 -32.487,-13.412c-36.65,-15.9 -72.758,-29.2 -113.346,-24.088c-10.996,3.804 -10.996,3.804 -16.667,12.5c-1.392,13.025 -1.392,13.025 0,25c23.287,15.025 44.633,21.229 71.617,26.825c55.158,12.346 115.696,28.546 149.329,77.733c16.354,32.046 17.629,68.371 9.671,103.158c-14.546,40.329 -44.408,70.788 -82.796,88.913c-69.496,26.175 -160.533,18.158 -227.413,-11.504c-24.971,-12.321 -48.329,-26.496 -70.408,-43.458c5.792,-17.475 13.933,-28.125 26.562,-41.408c13.679,-14.733 25.542,-28.912 35.938,-46.092c10.633,5.263 21.179,10.675 31.704,16.146c5.75,2.954 11.504,5.904 17.254,8.854c2.825,1.483 5.65,2.967 8.562,4.492c43.571,22.2 83.225,25.775 129.979,12.175c1.375,-9.625 2.75,-19.25 4.167,-29.167c-26.25,-17.783 -56.775,-24.888 -87.246,-32.237c-45.463,-11.029 -97.792,-24.612 -127.533,-63.742c-1.654,-2.788 -3.308,-5.575 -5.013,-8.446c-2.546,-4.2 -2.546,-4.2 -5.142,-8.483c-15.129,-28.338 -12.771,-72.117 -5.7,-103.092c16.092,-39.125 46.946,-66.517 84.8,-84c83.321,-31.408 181.775,-10.925 254.167,37.5Z" style="fill:#fff;fill-rule:nonzero;"/></g><g><path d="M970.833,1429.167l350,0l0,108.333l-229.167,0l0,75l208.333,0l0,100l-204.167,0l0,158.333l-125,0l0,-441.667Z" style="fill:#fff;fill-rule:nonzero;"/></g><g><path d="M2908.333,1429.167l387.5,0l0,108.333l-133.333,0l0,333.333l-125,0l0,-333.333l-129.167,0l0,-108.333Z" style="fill:#fff;fill-rule:nonzero;"/></g></g></svg>
