<?xml version="1.0" encoding="UTF-8" standalone="no"?>
<!DOCTYPE svg PUBLIC "-//W3C//DTD SVG 1.1//EN" "http://www.w3.org/Graphics/SVG/1.1/DTD/svg11.dtd">
<svg width="100%" height="100%" viewBox="0 0 1024 1024" version="1.1" xmlns="http://www.w3.org/2000/svg" xmlns:xlink="http://www.w3.org/1999/xlink" xml:space="preserve" xmlns:serif="http://www.serif.com/" style="fill-rule:evenodd;clip-rule:evenodd;stroke-linecap:round;stroke-linejoin:round;stroke-miterlimit:1.5;">
    <g transform="matrix(1.095418,0,0,1.096907,653.788874,120.173506)">
        <path d="M0,0C1.161,0.396 2.322,0.793 3.518,1.201C10.884,3.766 17.947,6.679 25,10C26.966,10.886 28.933,11.769 30.902,12.648C50.117,21.306 50.117,21.306 58.496,26.465C61.074,28.045 63.702,29.463 66.375,30.875C76.723,36.475 86.429,43.178 96,50C97.124,50.781 98.249,51.561 99.375,52.34C106.721,57.458 113.449,62.876 120,69C121.287,70.131 122.578,71.256 123.875,72.375C134.156,81.345 144.216,90.517 153.102,100.891C155.222,103.247 157.47,105.424 159.75,107.625C165.242,113.067 169.913,118.97 174.57,125.122C175.999,126.999 177.451,128.858 178.906,130.715C217.642,180.613 241.225,242.824 250,305C250.226,306.54 250.226,306.54 250.458,308.111C257.082,354.731 253.208,402.228 243,448C242.771,449.028 242.542,450.057 242.306,451.116C237.952,470.129 232.037,489.67 223,507C222.39,508.469 221.802,509.947 221.25,511.438C214.379,528.896 205.325,545.362 195,561C194.433,561.864 194.433,561.864 193.855,562.746C189.039,570.086 184.137,577.336 178.918,584.398C177.633,586.141 176.365,587.897 175.113,589.664C159.546,611.578 140.176,632.478 119,649C117.799,649.986 116.602,650.976 115.406,651.969C100.366,664.435 84.62,675.557 67.978,685.783C66.36,686.778 64.751,687.788 63.145,688.801C31.139,708.691 -6.734,721.394 -43,731C-43.775,731.206 -44.551,731.411 -45.35,731.623C-72.238,738.622 -100.276,741.232 -128,741.188C-128.713,741.187 -129.425,741.186 -130.16,741.186C-143.19,741.156 -156.052,740.491 -169,739C-170.15,738.871 -171.3,738.742 -172.485,738.609C-208.309,734.497 -242.927,726.53 -276,712C-277.148,711.503 -278.296,711.006 -279.479,710.494C-294.378,704.046 -309.11,697.455 -323,689C-323.867,688.473 -324.733,687.946 -325.626,687.403C-337.255,680.274 -348.462,672.761 -359.221,664.377C-360.95,663.038 -362.696,661.725 -364.449,660.418C-371.448,655.179 -377.998,649.547 -384.356,643.546C-386.164,641.846 -387.983,640.159 -389.805,638.473C-406.85,622.678 -406.85,622.678 -413.98,614.355C-415.509,612.573 -417.056,610.808 -418.613,609.051C-429.976,596.155 -439.923,582.257 -449.5,568C-450.345,566.747 -450.345,566.747 -451.207,565.469C-455.17,559.493 -458.648,553.336 -462,547C-462.484,546.097 -462.967,545.195 -463.466,544.265C-471.796,528.686 -479.579,512.984 -485.734,496.406C-486.654,493.932 -487.6,491.482 -488.578,489.031C-492.473,479.095 -495.513,468.997 -498.25,458.688C-498.579,457.449 -498.908,456.21 -499.247,454.934C-502.568,442.175 -505.249,429.435 -507.062,416.375C-507.223,415.27 -507.383,414.166 -507.549,413.027C-508.068,409.355 -508.543,405.68 -509,402C-509.09,401.278 -509.181,400.555 -509.274,399.811C-510.995,385.698 -511.362,371.707 -511.312,357.5C-511.311,356.402 -511.309,355.305 -511.307,354.174C-511.26,337.273 -510.7,320.715 -508,304C-507.828,302.909 -507.657,301.819 -507.48,300.695C-501.792,265.446 -491.809,231.498 -477,199C-476.668,198.259 -476.336,197.518 -475.994,196.754C-465.433,173.223 -452.135,151.171 -436.362,130.775C-434.348,128.15 -432.398,125.478 -430.438,122.812C-417.999,106.25 -403.779,90.217 -388.035,76.758C-385.793,74.821 -383.619,72.818 -381.438,70.812C-355.591,47.559 -326.435,27.828 -295,13C-294.284,12.66 -293.569,12.321 -292.832,11.971C-258.326,-4.174 -220.675,-14.136 -183,-19C-182.138,-19.112 -181.276,-19.224 -180.387,-19.339C-119.066,-27.1 -58.336,-20.089 0,0Z" style="fill:rgb(1,0,1);fill-rule:nonzero;"/>
    </g>
    <g transform="matrix(1,0,0,1,687.9375,135.6875)">
        <path d="M0,0C0.657,0.306 1.313,0.612 1.99,0.927C10.331,4.831 18.336,9.084 26.237,13.82C28.972,15.546 28.972,15.546 32.062,15.312C32.614,15.868 33.166,16.424 33.734,16.996C36.891,20.137 40.49,22.127 44.312,24.375C62.918,35.546 80.445,48.361 97.062,62.312C98.045,63.109 99.027,63.906 100.039,64.727C108.079,71.334 115.504,78.54 122.875,85.875C123.607,86.599 123.607,86.599 124.353,87.338C131.052,93.981 137.219,100.903 143.062,108.312C143.657,109.053 144.252,109.794 144.865,110.557C153.213,120.975 160.975,131.709 168.389,142.809C170.141,145.43 171.906,148.041 173.672,150.652C180.019,160.064 186.278,169.502 191.932,179.35C192.724,180.724 193.523,182.093 194.33,183.458C207.038,205.032 215.736,228.431 223.062,252.312C223.334,253.191 223.606,254.069 223.885,254.974C231.893,281.311 236.059,308.994 239.062,336.312C239.168,337.27 239.273,338.227 239.382,339.213C240.439,350.585 240.262,362.027 240.25,373.438C240.249,374.555 240.248,375.672 240.247,376.824C240.184,411.532 236.069,444.502 228.062,478.312C227.845,479.237 227.628,480.161 227.404,481.113C219.705,513.365 207.296,544.081 192.017,573.467C191.37,574.719 190.737,575.979 190.119,577.245C177.73,601.48 160.771,623.828 143.521,644.774C140.118,648.931 136.96,653.146 134.113,657.711C132.597,660.022 130.628,661.724 128.625,663.625C126.016,666.152 126.016,666.152 124.5,669C123.062,671.312 123.062,671.312 121.227,672.203C118.594,673.553 117.029,675.225 115,677.375C110.894,681.575 106.568,685.283 101.984,688.949C99.487,690.969 97.05,693.042 94.626,695.148C58.706,726.205 15.544,750.113 -28.938,766.312C-29.875,766.656 -30.813,767 -31.779,767.354C-77.983,784.176 -124.403,793.501 -173.586,793.498C-177.401,793.5 -181.216,793.518 -185.031,793.537C-204.986,793.584 -224.652,792.635 -244.312,789.062C-245.525,788.847 -246.737,788.632 -247.985,788.41C-264.798,785.34 -281.286,781.118 -297.75,776.562C-298.813,776.269 -299.875,775.975 -300.97,775.672C-301.956,775.394 -302.941,775.115 -303.957,774.828C-304.824,774.584 -305.692,774.339 -306.585,774.087C-308.938,773.312 -308.938,773.312 -311.03,772.245C-313.114,771.098 -313.114,771.098 -316.438,770.875C-319.938,770.312 -319.938,770.312 -321.629,768.984C-324.939,766.587 -328.565,765.426 -332.375,764C-353.514,755.776 -373.67,745.476 -392.924,733.511C-394.888,732.342 -396.89,731.327 -398.938,730.312C-400.351,729.381 -401.745,728.419 -403.125,727.438C-403.986,726.829 -404.847,726.221 -405.734,725.594C-407.495,724.34 -409.255,723.085 -411.014,721.828C-412.53,720.744 -414.047,719.662 -415.566,718.582C-417.091,717.495 -418.615,716.406 -420.135,715.313C-420.842,714.81 -421.549,714.307 -422.277,713.789C-422.91,713.336 -423.543,712.883 -424.195,712.417C-426.057,711.139 -426.057,711.139 -428.938,710.312C-430.604,708.646 -432.271,706.979 -433.938,705.312C-434.618,704.982 -435.299,704.653 -436,704.312C-437.938,703.312 -437.938,703.312 -439.812,700.875C-442.242,697.945 -444.559,696.964 -447.938,695.312C-448.267,694.322 -448.598,693.332 -448.938,692.312C-450.357,690.834 -450.357,690.834 -452.188,689.375C-460.746,682.112 -469.27,674.515 -476.938,666.312L-476.938,664.312C-477.928,663.982 -478.918,663.653 -479.938,663.312C-481.121,661.922 -481.121,661.922 -482.375,660.062C-485.182,656.158 -488.327,652.675 -491.625,649.188C-527.004,611.438 -551.761,563.76 -568.938,515.312C-569.265,514.392 -569.593,513.472 -569.931,512.524C-576.358,494.314 -581.321,475.826 -585.312,456.938C-585.576,455.707 -585.839,454.477 -586.11,453.209C-587.356,447.127 -588.261,441.522 -587.938,435.312C-588.597,434.983 -589.258,434.652 -589.938,434.312C-589.905,432.294 -589.872,430.276 -589.84,428.258C-589.925,425.679 -590.138,423.174 -590.406,420.609C-594.967,376.746 -593.134,330.165 -583.563,287.164C-583.353,286.212 -583.143,285.259 -582.926,284.277C-582.735,283.438 -582.545,282.599 -582.349,281.734C-581.921,279.215 -581.866,276.863 -581.938,274.312L-579.938,274.312C-579.835,273.662 -579.733,273.012 -579.627,272.341C-578.395,265.01 -576.532,258.027 -574.312,250.938C-573.966,249.818 -573.619,248.698 -573.261,247.545C-570.128,237.595 -566.527,227.854 -562.658,218.168C-562.037,216.568 -561.481,214.942 -560.938,213.312C-558.762,208.507 -556.473,203.754 -554.188,199C-553.855,198.308 -553.522,197.615 -553.179,196.902C-539.412,168.37 -539.412,168.37 -531.274,158.243C-529.653,156.293 -529.653,156.293 -529.938,153.312C-528.293,151.624 -526.624,149.959 -524.938,148.312C-524.27,146.98 -523.603,145.646 -522.938,144.312C-521.635,142.499 -520.297,140.71 -518.938,138.938C-515.555,134.498 -512.278,130 -509.062,125.438C-501.824,115.231 -494.214,105.403 -485.617,96.301C-483.735,94.321 -483.735,94.321 -482.938,91.312C-481.608,90.638 -480.274,89.973 -478.938,89.312C-477.284,87.8 -475.684,86.228 -474.121,84.621C-473.665,84.157 -473.208,83.693 -472.738,83.215C-470.8,81.244 -468.873,79.263 -466.947,77.281C-461.062,71.242 -455.059,65.56 -448.436,60.312C-443.74,56.554 -439.192,52.567 -434.938,48.312C-433.531,47.371 -432.124,46.431 -430.708,45.504C-428.795,44.217 -426.938,42.869 -425.082,41.5C-411.285,31.335 -397.021,22.036 -382.09,13.617C-379.831,12.365 -379.831,12.365 -377.938,10.312C-374.964,8.731 -372.135,7.378 -368.938,6.312C-367.947,5.322 -367.947,5.322 -366.938,4.312C-365.603,3.585 -364.242,2.904 -362.867,2.254C-362.053,1.868 -361.238,1.482 -360.398,1.084C-359.545,0.685 -358.692,0.286 -357.812,-0.125C-356.982,-0.52 -356.152,-0.915 -355.297,-1.322C-351.392,-3.161 -347.508,-4.887 -343.445,-6.348C-339.94,-7.413 -339.94,-7.413 -337.938,-9.688C-335.438,-10.188 -335.438,-10.188 -332.938,-10.688C-332.277,-11.348 -331.618,-12.008 -330.938,-12.688C-329.279,-13.059 -327.61,-13.386 -325.938,-13.688C-324.113,-14.265 -322.298,-14.874 -320.492,-15.508C-286.598,-27.219 -251.779,-35.213 -215.938,-37.688C-215.248,-37.742 -214.558,-37.797 -213.848,-37.854C-140.397,-43.65 -66.739,-31.19 0,0ZM-220.938,-1.688C-222.646,-1.502 -222.646,-1.502 -224.389,-1.313C-266.193,3.286 -308.172,14.556 -345.938,33.312C-347.226,33.933 -348.515,34.553 -349.805,35.172C-366.655,43.331 -381.967,53.095 -396.938,64.312C-397.811,64.961 -398.684,65.609 -399.583,66.277C-410.196,74.168 -420.372,82.178 -429.938,91.312C-431.304,92.53 -432.679,93.739 -434.062,94.938C-446.342,105.622 -457.795,116.547 -467.938,129.312C-469.333,130.98 -470.729,132.646 -472.125,134.312C-487.227,152.793 -500.288,172.514 -511.938,193.312C-512.306,193.967 -512.675,194.622 -513.055,195.296C-534.011,232.727 -547.276,274.902 -554.188,317.125C-554.339,318.041 -554.49,318.956 -554.645,319.9C-557.465,338.189 -558.314,356.391 -558.25,374.875C-558.248,375.971 -558.246,377.067 -558.244,378.197C-558.197,395.099 -557.518,411.584 -554.938,428.312C-554.68,430.102 -554.68,430.102 -554.417,431.928C-550.156,461.404 -543.261,491.186 -531.158,518.529C-529.947,521.292 -528.798,524.074 -527.656,526.867C-525.007,533.238 -522.118,539.472 -519.125,545.688C-518.337,547.327 -518.337,547.327 -517.532,548.999C-513.653,556.993 -509.5,564.691 -504.938,572.312C-504.403,573.272 -503.868,574.231 -503.316,575.219C-485.833,606.412 -460.337,637.141 -433.137,660.387C-430.505,662.691 -427.982,665.1 -425.438,667.5C-418.381,674.039 -410.735,679.696 -402.938,685.312C-402.163,685.874 -401.389,686.435 -400.592,687.013C-388.428,695.802 -375.967,703.869 -362.938,711.312C-361.941,711.889 -361.941,711.889 -360.925,712.477C-318.608,736.766 -270.952,750.697 -222.75,756.562C-222.068,756.646 -221.387,756.729 -220.685,756.815C-205.815,758.605 -191.039,759.524 -176.062,759.5C-175.35,759.499 -174.637,759.499 -173.903,759.498C-160.508,759.468 -147.254,758.838 -133.938,757.312C-132.89,757.194 -131.843,757.076 -130.764,756.954C-90.646,752.209 -51.221,739.654 -14.687,722.583C-11.903,721.297 -9.101,720.062 -6.289,718.84C-5.385,718.444 -4.481,718.049 -3.549,717.642C-1.89,716.916 -0.228,716.195 1.436,715.479C6.284,713.328 10.575,710.764 14.941,707.756C17.9,705.742 20.966,703.982 24.062,702.188C37.298,694.361 49.578,685.147 61.55,675.525C62.914,674.432 64.286,673.35 65.66,672.27C68.148,670.308 70.609,668.317 73.062,666.312C74.049,665.513 75.035,664.714 76.051,663.891C83.711,657.568 90.833,650.751 97.875,643.75C99.182,642.457 99.182,642.457 100.515,641.138C106.454,635.17 111.803,628.88 117.062,622.312C117.961,621.25 118.864,620.191 119.777,619.141C125.329,612.701 130.069,606.007 134.699,598.891C136.691,595.839 138.807,592.912 141,590C146.038,583.174 150.339,575.884 154.686,568.606C155.63,567.032 156.585,565.464 157.549,563.901C161.173,557.986 164.346,551.957 167.312,545.688C168.016,544.206 168.016,544.206 168.733,542.694C181.136,516.284 190.602,489.767 197.062,461.312C197.302,460.259 197.542,459.205 197.79,458.119C207.536,414.233 209.572,367.808 203.062,323.312C202.918,322.287 202.773,321.261 202.625,320.205C198.999,294.979 193.183,270.128 184.062,246.312C183.749,245.486 183.436,244.66 183.114,243.809C173.117,217.595 161.274,192.911 146.062,169.312C145.658,168.676 145.254,168.039 144.837,167.382C139.717,159.322 133.967,151.804 128.062,144.312C127.37,143.424 126.678,142.536 125.965,141.621C119.219,133.051 111.938,125.112 104.176,117.457C102.237,115.49 100.42,113.473 98.625,111.375C92.738,104.534 86.288,98.179 79.414,92.332C77.548,90.729 75.72,89.102 73.898,87.449C64.896,79.358 55.364,72.519 45.296,65.822C42.015,63.605 38.823,61.272 35.625,58.938C26.984,52.695 17.868,47.585 8.305,42.902C5.987,41.766 3.682,40.615 1.383,39.441C-8.571,34.373 -18.655,29.677 -28.938,25.312C-29.968,24.874 -29.968,24.874 -31.019,24.427C-90.496,-0.549 -156.996,-9.169 -220.938,-1.688Z" style="fill:rgb(252,252,252);fill-rule:nonzero;"/>
    </g>
    <g transform="matrix(1.008373,0,0,1.031824,-141.925837,-91.569155)">
        <ellipse cx="648" cy="583.5" rx="418" ry="408.5" style="fill-opacity:0;stroke:black;stroke-width:15.68px;"/>
    </g>
    <g transform="matrix(1.316003,0,0,1.372807,580.881616,393.420027)">
        <path d="M0,0C13.298,8.067 17.753,27.428 21.492,41.512C24.38,53.45 26.34,65.6 28.441,77.695C28.793,79.709 29.145,81.723 29.497,83.737C30.194,87.731 30.876,91.726 31.55,95.724C33.187,105.277 34.86,114.481 38.492,123.512C38.785,124.246 39.077,124.98 39.378,125.736C41.06,129.299 42.193,130.403 45.93,131.762C49.517,131.811 49.517,131.811 52.055,129.762C58.537,121.958 62.049,112.02 65.959,102.784C80.742,67.935 80.742,67.935 92.492,62.512C99.604,60.141 107.171,60.942 113.949,63.992C120.816,68.096 126.415,73.843 131.117,80.262C136.518,87.58 143.819,91.576 152.73,93.046C156.383,93.498 159.879,93.643 163.557,93.654C164.225,93.657 164.893,93.661 165.58,93.664C167.016,93.671 168.452,93.677 169.889,93.68C172.163,93.688 174.437,93.703 176.711,93.722C183.172,93.774 189.634,93.822 196.095,93.838C200.058,93.848 204.021,93.877 207.985,93.919C209.491,93.931 210.998,93.936 212.505,93.934C214.609,93.932 216.711,93.954 218.815,93.982C220.011,93.988 221.207,93.993 222.439,93.999C226.1,94.614 227.296,95.566 229.492,98.512C229.883,101.527 229.883,101.527 229.742,104.762C229.706,105.839 229.67,106.917 229.633,108.027C229.563,109.257 229.563,109.257 229.492,110.512C224.663,112.062 220.597,112.767 215.478,112.786C214.815,112.791 214.152,112.797 213.469,112.802C211.297,112.816 209.125,112.815 206.953,112.812C205.425,112.816 203.897,112.821 202.368,112.825C199.169,112.833 195.97,112.833 192.771,112.827C188.706,112.822 184.642,112.838 180.578,112.862C177.42,112.877 174.263,112.877 171.106,112.874C169.609,112.875 168.113,112.88 166.616,112.89C148.007,113.001 133.421,109.185 119.492,96.512C112.492,89.386 110.512,85.852 109.492,85.512C108.894,84.831 108.296,84.15 107.68,83.449C105.597,81.273 105.597,81.273 102.555,80.949C98.501,81.694 96.762,83.229 94.492,86.512C91.026,92.451 88.381,98.728 85.777,105.077C81.049,116.609 75.485,127.587 69.492,138.512C68.982,139.479 68.471,140.445 67.945,141.441C66.233,143.881 64.687,144.894 62.055,146.262C60.912,146.873 60.912,146.873 59.746,147.496C52.733,150.656 43.496,150.781 36.18,148.512C27.032,144.333 21.875,135.581 18.492,126.512C12.332,106.721 9.512,85.528 5.674,65.18C5.158,62.446 4.637,59.712 4.109,56.98C3.633,54.515 3.166,52.049 2.709,49.58C0.624,38.861 -2.137,28.491 -8.508,19.512C-11.881,19.372 -11.881,19.372 -15.508,20.512C-19.234,25.524 -21.014,32.327 -22.945,38.199C-23.247,39.116 -23.548,40.032 -23.859,40.976C-28.336,54.897 -31.296,68.987 -33.758,83.387C-35.799,95.292 -38.311,107.053 -41.008,118.824C-41.193,119.645 -41.379,120.466 -41.57,121.312C-50.724,161.688 -50.724,161.688 -64.695,171.824C-70.512,174.827 -76.86,175.253 -83.133,173.512C-92.97,169.643 -98.343,161.368 -102.625,152.091C-103.631,149.625 -104.556,147.146 -105.445,144.637C-105.78,143.703 -106.114,142.768 -106.458,141.806C-112.125,125.442 -115.811,108.506 -119.008,91.512C-120.505,83.623 -122.372,76.039 -125.008,68.449C-125.28,67.658 -125.553,66.868 -125.834,66.053C-127.731,60.879 -130.022,55.825 -133.508,51.512C-136.426,49.941 -136.426,49.941 -139.508,50.512C-143.771,54.06 -145.968,57.895 -148.008,62.949C-148.333,63.73 -148.657,64.51 -148.992,65.315C-151.444,71.399 -153.579,77.578 -155.668,83.793C-155.947,84.621 -156.226,85.449 -156.514,86.303C-157.923,90.497 -159.314,94.696 -160.676,98.906C-164.329,110.032 -168.239,121.746 -177.508,129.512C-178.107,130.021 -178.707,130.53 -179.324,131.055C-184.518,134.52 -192.445,135.262 -198.551,134.168C-212.248,129.575 -220.57,115.875 -227.443,104.156C-231.518,97.168 -231.518,97.168 -238.508,93.512C-244.794,93.762 -250.766,98.275 -256.061,101.383C-268.01,108.369 -278.902,112.867 -292.82,112.742C-293.674,112.742 -294.528,112.741 -295.407,112.741C-297.199,112.738 -298.991,112.73 -300.782,112.718C-303.501,112.699 -306.219,112.697 -308.938,112.697C-310.69,112.692 -312.443,112.687 -314.195,112.68C-314.996,112.679 -315.796,112.677 -316.62,112.676C-320.558,112.644 -324.477,112.505 -328.402,112.189C-329.119,112.132 -329.835,112.076 -330.573,112.018C-333.036,111.374 -333.97,110.525 -335.508,108.512C-337.044,101.711 -337.044,101.711 -335.195,97.574C-333.508,95.512 -333.508,95.512 -331.508,94.512C-328.503,94.39 -325.518,94.326 -322.512,94.301C-320.654,94.273 -318.797,94.244 -316.939,94.215C-314.017,94.174 -311.095,94.137 -308.172,94.11C-294.543,93.976 -282.974,93.326 -270.758,86.762C-269.395,86.056 -268.032,85.351 -266.668,84.648C-265.985,84.294 -265.302,83.94 -264.598,83.576C-261.167,81.829 -257.686,80.197 -254.195,78.574C-253.567,78.28 -252.939,77.986 -252.292,77.683C-244.889,74.244 -237.796,72.961 -229.777,75.312C-218.296,80.492 -212.391,91.492 -206.354,101.959C-203.17,107.312 -199.97,112.255 -194.508,115.512C-190.79,116.267 -190.79,116.267 -187.508,114.512C-186.116,112.47 -185.297,110.509 -184.467,108.183C-183.603,105.778 -182.655,103.438 -181.668,101.082C-179.071,94.625 -177.133,87.985 -175.133,81.324C-163.192,42.215 -163.192,42.215 -146.508,32.512C-140.385,29.873 -134.56,30.042 -128.332,32.301C-115.46,38.264 -110.233,51.971 -105.508,64.512C-100.826,77.739 -98.271,91.436 -95.63,105.176C-93.768,114.819 -91.702,124.296 -88.82,133.699C-88.411,135.041 -88.411,135.041 -87.992,136.41C-86.285,141.73 -84.226,146.623 -81.508,151.512C-78.34,153.095 -75.993,152.932 -72.508,152.512C-68.451,147.698 -66.84,142.227 -65.07,136.262C-64.616,134.741 -64.616,134.741 -64.152,133.19C-60.349,120.031 -58.088,106.598 -55.744,93.119C-42.105,14.832 -42.105,14.832 -24.723,1.977C-16.702,-3.328 -8.837,-3.828 0,0Z" style="fill:rgb(194,131,44);fill-rule:nonzero;"/>
    </g>
</svg>
