<?xml version="1.0" encoding="UTF-8" standalone="no"?>
<svg width="100%" height="100%" viewBox="0 0 1360 250" version="1.1" xmlns="http://www.w3.org/2000/svg" xmlns:xlink="http://www.w3.org/1999/xlink" xml:space="preserve" style="fill-rule:evenodd;clip-rule:evenodd;stroke-linejoin:round;stroke-miterlimit:2;"><g><path d="M466.568,146.412c11.156,7.839 18.724,17.464 21.298,30.945c1.187,15.731 -2.577,26.388 -12.066,38.823c-9.21,9.635 -21.486,14.572 -34.91,15.227c-13.991,0.181 -25.254,-3.915 -36.167,-12.543c-1.758,-1.761 -1.758,-1.761 -1.758,-4.032l-2.326,0c-8.402,-10.535 -11.883,-23.132 -10.467,-36.339c2.603,-13.895 10.49,-24.707 22.098,-32.933c15.532,-9.717 38.909,-8.515 54.299,0.852Z" style="fill:#f9f9f9;fill-rule:nonzero;"/><path d="M515.779,25.186c1.247,0.656 2.495,1.312 3.78,1.987c10.166,8.122 17.579,18.084 19.481,30.945c1.177,13.405 -2.4,24.346 -10.467,35.204c-9.534,10.975 -19.996,16.198 -34.75,17.402c-15.433,0.608 -28.13,-3.459 -39.611,-13.743c-10.046,-10.337 -13.272,-22.292 -13.111,-36.197c0.82,-12.702 6.899,-22.056 16.092,-30.772c16.242,-13.376 40.075,-15.384 58.588,-4.826Z" style="fill:#fafafa;fill-rule:nonzero;"/><path d="M361.427,147.175c9.898,6.72 16.456,15.27 19.44,26.775c1.892,14.021 0.541,26.64 -8.123,38.313c-5.681,6.639 -11.834,11.294 -19.79,15.06c-0.781,0.385 -1.562,0.77 -2.367,1.167c-10.296,4.203 -24.346,3.847 -34.85,0.395c-13.301,-5.639 -23.584,-13.909 -29.076,-27.254c-3.84,-11.781 -4.124,-23.67 0.868,-35.15c6.085,-11.476 16.083,-21.041 28.553,-25.631c15.932,-3.577 31.425,-2.131 45.345,6.326Z" style="fill:#fafafa;fill-rule:nonzero;"/><path d="M748.386,20.643c59.315,0 59.315,0 73.489,12.456c10.094,10.291 12.088,19.847 11.968,33.72c-0.25,7.299 -1.336,13.332 -5.208,19.689c-0.696,1.218 -1.391,2.436 -2.108,3.691c-9.612,11.799 -21.343,15.377 -36.272,19.021l-41.869,0l0,-88.577Z" style="fill:#fafafa;fill-rule:nonzero;"/><path d="M127.325,20.643c8.252,-0.047 16.503,-0.094 25.005,-0.142c2.587,-0.021 5.174,-0.041 7.839,-0.063c2.075,-0.007 4.151,-0.012 6.226,-0.017c1.057,-0.012 2.115,-0.023 3.204,-0.035c11.786,-0.003 22.091,2.469 30.996,10.477c6.603,8.775 6.432,16.759 5.815,27.254c-1.535,7.716 -5.882,13.567 -12.43,18.028c-2.69,1.278 -2.69,1.278 -5.016,1.278c0.593,0.842 1.186,1.684 1.797,2.552c2.199,3.128 4.394,6.258 6.587,9.39c0.95,1.355 1.901,2.708 2.853,4.061c1.369,1.945 2.733,3.894 4.096,5.844c0.822,1.172 1.644,2.343 2.492,3.55c1.947,2.993 1.947,2.993 3.11,6.4c-9.568,1.586 -19.697,2.99 -29.076,0c-8.013,-6.265 -13.381,-15.887 -17.446,-24.983l0,-2.271l-11.63,0l0,26.119l-24.424,0l0,-87.442Z" style="fill:#fbfbfb;fill-rule:nonzero;"/><path d="M648.365,20.643c23.261,0 23.261,0 29.803,5.891c1.3,1.898 2.6,3.797 3.812,5.75c2.158,3.359 4.722,6.402 7.237,9.51c0.962,1.229 1.922,2.459 2.88,3.691c3.346,4.257 6.78,8.439 10.24,12.607c1.854,2.298 1.854,2.298 4.18,5.705c0.384,-14.24 0.768,-28.481 1.163,-43.153l25.587,0l0,88.577l-23.261,0c-4.55,-4.56 -6.484,-7.121 -9.304,-12.492c-1.452,-1.883 -2.955,-3.73 -4.507,-5.536c-3.668,-4.43 -7.271,-8.902 -10.831,-13.414c-0.928,-1.175 -1.856,-2.351 -2.812,-3.562c-2.936,-3.802 -5.766,-7.681 -8.6,-11.556c-0.384,14.99 -0.768,29.98 -1.163,45.424l-24.424,0l0,-87.442Z" style="fill:#fbfbfb;fill-rule:nonzero;"/><path d="M219.205,20.643l24.424,0c2.303,2.998 4.606,5.996 6.978,9.085c6.671,8.55 13.426,17.033 20.261,25.458c2.278,2.816 4.449,5.622 6.489,8.61c0.384,-14.24 0.768,-28.481 1.163,-43.153l25.587,0l0,88.577l-23.261,0c-7.023,-7.567 -7.023,-7.567 -8.891,-11.201c-2.884,-5.181 -6.555,-9.506 -10.445,-13.995c-5.925,-6.916 -11.262,-14.038 -16.719,-21.364c-0.384,14.99 -0.768,29.98 -1.163,45.424l-24.424,0l0,-87.442Z" style="fill:#fbfbfb;fill-rule:nonzero;"/><path d="M58.754,19.379c1.017,0.006 2.034,0.012 3.082,0.018c1.098,0.004 2.196,0.007 3.328,0.011c1.155,0.01 2.31,0.019 3.5,0.029c1.16,0.005 2.319,0.01 3.514,0.016c2.875,0.013 5.75,0.032 8.625,0.055c6.582,14.685 13.082,29.4 19.454,44.173c2.931,6.789 5.888,13.567 8.881,20.331c0.651,1.474 1.303,2.948 1.954,4.422c0.95,2.15 1.902,4.298 2.858,6.445c0.88,1.976 1.755,3.954 2.629,5.932c0.503,1.132 1.007,2.265 1.525,3.431c1.078,2.708 1.078,2.708 1.078,4.979l-27.913,0c-5.815,-13.343 -5.815,-13.343 -5.815,-15.898l-34.891,0c-1.151,3.373 -2.303,6.745 -3.489,10.22c-0.768,1.874 -1.535,3.747 -2.326,5.678l-26.75,0c2.196,-7.146 4.304,-13.689 7.369,-20.419c0.368,-0.822 0.735,-1.644 1.114,-2.491c1.189,-2.657 2.386,-5.311 3.584,-7.964c1.674,-3.735 3.343,-7.472 5.011,-11.21c0.42,-0.939 0.84,-1.879 1.272,-2.847c4.907,-11.001 9.631,-22.076 14.333,-33.161c0.875,-2.055 0.875,-2.055 1.768,-4.151c0.509,-1.201 1.018,-2.403 1.542,-3.641c1.725,-3.793 1.725,-3.793 4.762,-3.958Z" style="fill:#f9f9f9;fill-rule:nonzero;"/><path d="M549.507,20.643l26.75,0c0.065,6.049 0.065,6.049 0.132,12.221c0.054,3.909 0.113,7.817 0.173,11.726c0.039,2.715 0.071,5.43 0.098,8.146c0.039,3.904 0.1,7.808 0.165,11.712c0.007,1.213 0.015,2.425 0.023,3.675c0.084,8.068 0.084,8.068 4.062,14.978c3.403,3.164 5.728,3.875 10.395,3.833c4.823,-0.166 8.017,-0.561 11.703,-3.833c4.28,-6.309 4.038,-12.345 4.084,-19.651c0.021,-1.225 0.042,-2.451 0.063,-3.713c0.063,-3.899 0.102,-7.798 0.141,-11.697c0.039,-2.65 0.079,-5.3 0.12,-7.949c0.102,-6.482 0.171,-12.964 0.243,-19.447l25.587,0c0.087,8.384 0.15,16.769 0.192,25.153c0.017,2.849 0.041,5.699 0.072,8.548c0.043,4.107 0.062,8.214 0.078,12.322c0.018,1.264 0.036,2.528 0.055,3.83c0.003,11.594 -2.359,20.561 -10.372,29.391c-8.949,8.665 -20.312,10.878 -32.547,11.037c-12.36,-0.173 -22.908,-2.871 -32.015,-11.44c-3.965,-4.916 -6.034,-10.491 -8.037,-16.382c-0.576,-1.686 -0.576,-1.686 -1.163,-3.407c-0.102,-1.934 -0.137,-3.871 -0.132,-5.807c0,-1.182 0,-2.364 0,-3.582c0.006,-1.274 0.012,-2.548 0.018,-3.861c0.002,-1.306 0.003,-2.612 0.005,-3.957c0.007,-4.177 0.021,-8.354 0.036,-12.531c0.006,-2.829 0.011,-5.659 0.016,-8.488c0.012,-6.942 0.035,-13.883 0.057,-20.825Z" style="fill:#f9f9f9;fill-rule:nonzero;"/><path d="M611.511,139.314c1.607,0.019 1.607,0.019 3.247,0.039c12.75,0.354 22.826,4.263 33.606,10.749c-1.677,4.714 -4.072,8.29 -7.124,12.279c-0.843,1.108 -1.685,2.216 -2.553,3.358c-0.645,0.836 -1.289,1.672 -1.954,2.533c-3.523,-0.749 -6.556,-1.908 -9.813,-3.407c-7.051,-3.09 -13.841,-4.284 -21.589,-3.407c-0.768,0.749 -1.535,1.499 -2.326,2.271c0.373,2.956 0.373,2.956 1.163,5.678c6.996,2.386 13.917,4.593 21.153,6.175c10.249,2.446 18.273,6.67 24.206,15.402c2.559,7.496 2.283,16.81 -1.054,24.065c-5.047,8.148 -11.927,11.772 -21.044,14.545c-1.055,0.329 -1.055,0.329 -2.131,0.665c-17.712,3.303 -35.399,-1.213 -50.206,-10.886c-2.176,-2.524 -2.176,-2.524 -3.489,-4.542c1.646,-1.799 3.294,-3.597 4.943,-5.394c0.918,-1.001 1.835,-2.003 2.78,-3.034c2.402,-2.563 4.858,-5.037 7.396,-7.47c1.031,0.843 2.063,1.686 3.126,2.555c7.713,5.384 18.768,9.019 28.276,7.665c3.427,-1.229 3.427,-1.229 5.815,-3.407l0,-4.542c-6.974,-2.613 -13.942,-4.9 -21.153,-6.814c-10.344,-2.859 -18.139,-5.689 -24.206,-14.763c-3.43,-6.964 -3.888,-14.94 -1.268,-22.264c7.082,-13.274 19.488,-18.351 34.196,-18.05Z" style="fill:#f9f9f9;fill-rule:nonzero;"/><path d="M393.733,19.082c0.984,0.001 1.968,0.003 2.983,0.004c9.253,0.125 16.963,1.919 25.294,6.028c1.184,0.572 2.369,1.145 3.589,1.734c2.953,1.743 2.953,1.743 5.279,5.15c-3.838,5.246 -7.676,10.493 -11.63,15.898c-4.193,-1.024 -7.677,-2.385 -11.63,-4.046c-7.577,-2.916 -14.038,-3.406 -22.098,-2.768l0,6.814c5.676,2.757 11.19,4.832 17.373,6.246c10.391,2.404 20.476,5.138 27.113,13.827c4.012,6.57 4.188,13.347 3.198,20.809c-2.1,7.549 -7.348,12.842 -13.956,17.034c-14.521,7.153 -30.788,5.914 -45.94,1.526c-7.414,-2.779 -14.713,-6.325 -19.19,-12.882c4.606,-5.246 9.211,-10.493 13.956,-15.898c2.802,1.7 5.603,3.401 8.405,5.101c6.969,3.699 12.77,4.292 20.526,4.125c0.912,-0.01 1.823,-0.02 2.762,-0.031c2.229,-0.027 4.458,-0.067 6.687,-0.111l0,-7.949c-1.154,-0.262 -2.309,-0.524 -3.498,-0.794c-32.391,-7.508 -32.391,-7.508 -41.86,-18.511c-3.508,-6.028 -3.046,-13.676 -2.326,-20.441c2.277,-7.987 7.873,-13.166 15.105,-17.182c6.782,-3.177 12.392,-3.897 19.859,-3.685Z" style="fill:#f9f9f9;fill-rule:nonzero;"/><path d="M201.759,141.017l79.086,0l0,21.576l-26.75,0l0,67.001l-25.587,0l0,-67.001l-26.75,0l0,-21.576Z" style="fill:#fafafa;fill-rule:nonzero;"/><path d="M499.496,141.017l26.75,0l0,65.865l43.032,0l0,22.712l-69.782,0l0,-88.577Z" style="fill:#f3f3f3;fill-rule:nonzero;"/><rect x="320.389" y="20.643" width="24.424" height="87.442" style="fill:#fefefe;fill-rule:nonzero;"/><path d="M446.174,162.199c5.907,2.579 10.31,6.406 13.779,11.751c2.536,7.188 2.491,16.388 -0.8,23.28c-3.454,5.725 -7.963,8.65 -14.32,10.788c-6.639,0.822 -13.428,0.993 -19.108,-2.826c-5.79,-5.443 -9.211,-11.567 -9.459,-19.461c0.522,-7.853 2,-13.681 8.141,-19.021c6.766,-5.291 13.29,-7.02 21.766,-4.511Z" style="fill:#030303;fill-rule:nonzero;"/><path d="M340.347,162.155c6.373,2.722 10.374,7.055 13.77,12.931c2.344,7.045 1.965,14.844 -0.945,21.661c-3.274,5.185 -8.277,9.352 -14.174,11.272c-7.859,0.831 -14.524,0.243 -20.935,-4.542c-6.694,-7.153 -7.464,-13.715 -7.373,-23.249c0.549,-5.568 2.138,-9.163 6.21,-13.09c2.66,-1.9 5.13,-3.156 8.141,-4.542c4.69,-2.289 10.351,-1.813 15.306,-0.439Z" style="fill:#030303;fill-rule:nonzero;"/><path d="M505.311,46.762c6.123,6.31 7.477,12.582 7.269,21.053c-0.745,7.158 -4.057,11.894 -9.595,16.422c-6.158,4.151 -12.53,4.47 -19.772,3.407c-6.601,-2.509 -10.569,-6.407 -13.956,-12.492c-2.352,-6.891 -2.102,-15.075 0,-22.002c4.078,-5.226 8.576,-9.915 15.047,-12.066c8.312,0 14.353,0.238 21.007,5.678Z" style="fill:#030303;fill-rule:nonzero;"/><path d="M773.972,43.356c21.343,0 21.343,0 28.858,6.033c4.906,5.885 5.471,11.833 5.306,19.23c-0.702,5.033 -2.696,8.542 -6.251,12.212c-9.2,6.762 -15.694,5.678 -27.913,5.678l0,-43.153Z" style="fill:#020202;fill-rule:nonzero;"/><path d="M151.749,42.22c3.31,-0.07 6.621,-0.141 10.031,-0.213c1.029,-0.031 2.059,-0.062 3.119,-0.094c5.787,-0.059 9.766,0.536 14.762,3.714c1.856,3.625 1.762,7.421 1.163,11.356c-2.175,2.761 -3.816,4.134 -6.978,5.678c-1.685,0.095 -3.374,0.122 -5.061,0.111c-0.989,-0.004 -1.979,-0.007 -2.998,-0.011c-1.034,-0.01 -2.069,-0.019 -3.135,-0.029c-1.043,-0.005 -2.087,-0.01 -3.162,-0.016c-2.581,-0.013 -5.161,-0.034 -7.741,-0.055l0,-20.441Z" style="fill:#070707;fill-rule:nonzero;"/><path d="M68.01,50.169c2.59,3.793 4.244,7.715 5.961,11.924c0.322,0.769 0.645,1.537 0.977,2.329c1.381,3.367 2.367,5.935 2.367,9.595l-18.609,0c2.362,-8.376 5.449,-16.022 9.304,-23.848Z" style="fill:#141414;fill-rule:nonzero;"/></g><path d="M1100.308,23.954c13.889,9.57 18.541,32.541 22.446,49.25c3.016,14.163 5.063,28.579 7.258,42.928c0.367,2.389 0.735,4.778 1.102,7.168c0.728,4.738 1.441,9.479 2.145,14.222c1.709,11.333 3.457,22.253 7.25,32.967c0.305,0.871 0.611,1.742 0.926,2.639c1.756,4.227 2.94,5.537 6.842,7.149c3.746,0.059 3.746,0.059 6.397,-2.373c6.77,-9.258 10.438,-21.049 14.522,-32.006c15.439,-41.346 15.439,-41.346 27.71,-47.779c7.428,-2.813 15.33,-1.862 22.409,1.756c7.172,4.868 13.019,11.687 17.93,19.302c5.641,8.682 13.266,13.423 22.572,15.167c3.815,0.537 7.466,0.708 11.308,0.721c0.697,0.004 1.394,0.008 2.113,0.012c1.5,0.009 3,0.015 4.499,0.019c2.375,0.009 4.75,0.027 7.125,0.049c6.748,0.062 13.496,0.119 20.244,0.138c4.139,0.012 8.278,0.047 12.417,0.096c1.573,0.015 3.147,0.021 4.721,0.018c2.197,-0.003 4.393,0.023 6.591,0.056c1.249,0.007 2.498,0.014 3.784,0.021c3.823,0.729 5.073,1.858 7.366,5.353c0.408,3.578 0.408,3.578 0.261,7.415c-0.038,1.279 -0.075,2.557 -0.114,3.874c-0.073,1.459 -0.073,1.459 -0.147,2.947c-5.043,1.839 -9.29,2.675 -14.636,2.699c-0.692,0.006 -1.385,0.012 -2.098,0.018c-2.269,0.016 -4.537,0.015 -6.805,0.013c-1.596,0.005 -3.192,0.01 -4.788,0.015c-3.341,0.009 -6.682,0.009 -10.023,0.002c-4.245,-0.007 -8.489,0.013 -12.734,0.041c-3.298,0.018 -6.595,0.018 -9.892,0.015c-1.563,0.001 -3.126,0.007 -4.689,0.019c-19.436,0.132 -34.669,-4.396 -49.216,-19.431c-7.311,-8.453 -9.379,-12.647 -10.444,-13.05c-0.625,-0.807 -1.249,-1.615 -1.893,-2.447c-2.175,-2.582 -2.175,-2.582 -5.352,-2.966c-4.233,0.883 -6.05,2.705 -8.42,6.599c-3.62,7.046 -6.383,14.494 -9.102,22.026c-4.938,13.681 -10.749,26.706 -17.008,39.667c-0.533,1.147 -1.066,2.294 -1.616,3.476c-1.788,2.894 -3.403,4.097 -6.152,5.719c-1.193,0.725 -1.193,0.725 -2.411,1.464c-7.324,3.749 -16.972,3.897 -24.612,1.205c-9.554,-4.958 -14.94,-15.341 -18.473,-26.101c-6.434,-23.48 -9.379,-48.623 -13.387,-72.764c-0.539,-3.244 -1.083,-6.487 -1.635,-9.728c-0.497,-2.924 -0.985,-5.851 -1.462,-8.779c-2.178,-12.717 -5.061,-25.021 -11.715,-35.674c-3.523,-0.166 -3.523,-0.166 -7.311,1.186c-3.891,5.946 -5.751,14.018 -7.768,20.985c-0.315,1.087 -0.63,2.175 -0.954,3.295c-4.676,16.516 -7.767,33.232 -10.338,50.316c-2.132,14.124 -4.756,28.077 -7.572,42.043c-0.194,0.974 -0.387,1.948 -0.587,2.952c-9.56,47.902 -9.56,47.902 -24.152,59.928c-6.075,3.563 -12.705,4.068 -19.256,2.002c-10.273,-4.59 -15.886,-14.407 -20.358,-25.414c-1.05,-2.925 -2.016,-5.866 -2.945,-8.843c-0.349,-1.108 -0.698,-2.217 -1.058,-3.358c-5.918,-19.414 -9.767,-39.507 -13.107,-59.669c-1.564,-9.359 -3.513,-18.357 -6.266,-27.361c-0.285,-0.938 -0.569,-1.877 -0.863,-2.843c-1.982,-6.139 -4.374,-12.134 -8.014,-17.252c-3.047,-1.863 -3.047,-1.863 -6.266,-1.186c-4.452,4.209 -6.747,8.76 -8.877,14.756c-0.339,0.926 -0.678,1.852 -1.028,2.806c-2.561,7.218 -4.791,14.549 -6.972,21.923c-0.291,0.983 -0.583,1.965 -0.883,2.977c-1.472,4.976 -2.924,9.958 -4.347,14.953c-3.815,13.2 -7.899,27.098 -17.579,36.311c-0.626,0.604 -1.252,1.208 -1.897,1.831c-5.425,4.112 -13.703,4.992 -20.08,3.694c-14.305,-5.449 -22.997,-21.703 -30.175,-35.606c-4.256,-8.29 -4.256,-8.29 -11.556,-12.629c-6.566,0.297 -12.802,5.651 -18.333,9.338c-12.479,8.289 -23.854,13.625 -38.39,13.477c-0.892,-0.001 -1.783,-0.001 -2.702,-0.002c-1.871,-0.004 -3.742,-0.013 -5.613,-0.028c-2.839,-0.022 -5.678,-0.024 -8.517,-0.024c-1.83,-0.006 -3.661,-0.013 -5.491,-0.021c-0.836,-0.001 -1.672,-0.003 -2.533,-0.004c-4.112,-0.039 -8.205,-0.204 -12.305,-0.578c-0.748,-0.067 -1.497,-0.134 -2.268,-0.203c-2.572,-0.764 -3.548,-1.771 -5.153,-4.159c-1.604,-8.069 -1.604,-8.069 0.326,-12.976c1.762,-2.447 1.762,-2.447 3.851,-3.633c3.138,-0.144 6.256,-0.22 9.395,-0.25c1.94,-0.033 3.88,-0.067 5.82,-0.102c3.052,-0.049 6.104,-0.092 9.156,-0.124c14.234,-0.16 26.317,-0.931 39.075,-8.718c1.423,-0.838 2.847,-1.673 4.271,-2.507c0.713,-0.42 1.427,-0.84 2.162,-1.273c3.583,-2.072 7.219,-4.008 10.865,-5.934c0.656,-0.349 1.312,-0.698 1.988,-1.058c7.732,-4.079 15.14,-5.602 23.514,-2.812c11.991,6.145 18.158,19.195 24.463,31.613c3.325,6.351 6.666,12.215 12.371,16.079c3.882,0.895 3.882,0.895 7.311,-1.186c1.453,-2.422 2.309,-4.749 3.176,-7.509c0.902,-2.853 1.892,-5.629 2.923,-8.424c2.712,-7.661 4.736,-15.538 6.825,-23.441c12.471,-46.399 12.471,-46.399 29.895,-57.911c6.395,-3.131 12.478,-2.93 18.982,-0.25c13.443,7.075 18.902,23.336 23.837,38.215c4.89,15.693 7.558,31.943 10.316,48.244c1.945,11.441 4.103,22.685 7.112,33.841c0.428,1.592 0.428,1.592 0.865,3.216c1.783,6.312 3.934,12.118 6.772,17.917c3.308,1.879 5.76,1.685 9.399,1.186c4.237,-5.711 5.919,-12.201 7.768,-19.279c0.475,-1.804 0.475,-1.804 0.959,-3.645c3.972,-15.612 6.333,-31.548 8.782,-47.54c14.244,-92.88 14.244,-92.88 32.398,-108.132c8.376,-6.293 16.591,-6.886 25.82,-2.345Z" style="fill:#c2832c;fill-rule:nonzero;"/></svg>
