<?xml version="1.0" encoding="UTF-8" standalone="no"?>
<svg width="100%" height="100%" viewBox="0 0 1920 330" version="1.1" xmlns="http://www.w3.org/2000/svg" xmlns:xlink="http://www.w3.org/1999/xlink" xml:space="preserve" style="fill-rule:evenodd;clip-rule:evenodd;stroke-linejoin:round;stroke-miterlimit:2;">
    <g transform="matrix(1,0,0,1,0,-369)">
        <g transform="matrix(1.401102,0,0,1.368057,-176.967506,-72.746027)">
            <g transform="matrix(1,0,0,1,537.6875,466.75)">
                <path d="M0,0C9.593,6.903 16.099,15.378 18.312,27.25C19.333,41.103 16.097,50.487 7.938,61.438C0.019,69.922 -10.536,74.27 -22.079,74.846C-34.108,75.006 -43.793,71.398 -53.176,63.801C-54.688,62.25 -54.688,62.25 -54.688,60.25L-56.688,60.25C-63.912,50.973 -66.905,39.88 -65.688,28.25C-63.449,16.014 -56.668,6.493 -46.688,-0.75C-33.333,-9.307 -13.233,-8.249 0,0Z" style="fill:rgb(249,249,249);fill-rule:nonzero;"/>
            </g>
            <g transform="matrix(1,0,0,1,580,360)">
                <path d="M0,0C1.073,0.578 2.145,1.155 3.25,1.75C11.991,8.902 18.365,17.674 20,29C21.012,40.804 17.936,50.439 11,60C2.802,69.664 -6.193,74.264 -18.879,75.324C-32.149,75.86 -43.066,72.278 -52.938,63.223C-61.575,54.12 -64.349,43.592 -64.211,31.348C-63.506,20.163 -58.279,11.926 -50.375,4.25C-36.41,-7.529 -15.918,-9.297 0,0Z" style="fill:rgb(250,250,250);fill-rule:nonzero;"/>
            </g>
            <g transform="matrix(1,0,0,1,447.285156,467.421875)">
                <path d="M0,0C8.511,5.918 14.149,13.447 16.715,23.578C18.341,35.925 17.18,47.037 9.73,57.316C4.846,63.162 -0.445,67.262 -7.285,70.578C-7.957,70.917 -8.628,71.256 -9.32,71.605C-18.173,75.307 -30.253,74.993 -39.285,71.953C-50.721,66.988 -59.563,59.705 -64.285,47.953C-67.587,37.579 -67.831,27.109 -63.539,17C-58.307,6.894 -49.711,-1.529 -38.988,-5.57C-25.289,-8.72 -11.969,-7.447 0,0Z" style="fill:rgb(250,250,250);fill-rule:nonzero;"/>
            </g>
            <g transform="matrix(1,0,0,1,780,356)">
                <path d="M0,0C51,0 51,0 63.188,10.969C71.866,20.031 73.581,28.446 73.478,40.662C73.262,47.089 72.329,52.401 69,58C68.402,59.072 67.804,60.145 67.188,61.25C58.923,71.64 48.836,74.791 36,78L0,78L0,0Z" style="fill:rgb(250,250,250);fill-rule:nonzero;"/>
            </g>
            <g transform="matrix(1,0,0,1,246,356)">
                <path d="M0,0C7.095,-0.041 14.19,-0.083 21.5,-0.125C23.724,-0.143 25.949,-0.161 28.24,-0.18C30.025,-0.186 31.809,-0.191 33.594,-0.195C34.503,-0.206 35.412,-0.216 36.349,-0.226C46.482,-0.229 55.343,1.947 63,9C68.677,16.727 68.531,23.757 68,33C66.681,39.794 62.943,44.947 57.312,48.875C55,50 55,50 53,50C53.51,50.742 54.019,51.483 54.545,52.247C56.435,55.002 58.323,57.758 60.208,60.516C61.025,61.709 61.842,62.901 62.661,64.093C63.839,65.805 65.012,67.522 66.184,69.238C66.891,70.27 67.598,71.302 68.326,72.365C70,75 70,75 71,78C62.773,79.396 54.064,80.633 46,78C39.111,72.483 34.495,64.01 31,56L31,54L21,54L21,77L0,77L0,0Z" style="fill:rgb(251,251,251);fill-rule:nonzero;"/>
            </g>
            <g transform="matrix(1,0,0,1,694,356)">
                <path d="M0,0C20,0 20,0 25.625,5.188C26.743,6.858 27.86,8.531 28.902,10.25C30.758,13.208 32.963,15.888 35.125,18.625C35.952,19.707 36.778,20.79 37.602,21.875C40.478,25.623 43.431,29.306 46.406,32.977C48,35 48,35 50,38C50.33,25.46 50.66,12.92 51,0L73,0L73,78L53,78C49.088,73.985 47.425,71.729 45,67C43.751,65.342 42.459,63.715 41.125,62.125C37.971,58.224 34.873,54.286 31.812,50.312C31.015,49.277 30.217,48.242 29.395,47.176C26.87,43.828 24.437,40.412 22,37C21.67,50.2 21.34,63.4 21,77L0,77L0,0Z" style="fill:rgb(251,251,251);fill-rule:nonzero;"/>
            </g>
            <g transform="matrix(1,0,0,1,325,356)">
                <path d="M0,0L21,0C22.98,2.64 24.96,5.28 27,8C32.736,15.529 38.544,22.999 44.421,30.418C46.379,32.898 48.246,35.369 50,38C50.33,25.46 50.66,12.92 51,0L73,0L73,78L53,78C46.961,71.336 46.961,71.336 45.355,68.137C42.876,63.574 39.719,59.766 36.375,55.812C31.28,49.722 26.692,43.451 22,37C21.67,50.2 21.34,63.4 21,77L0,77L0,0Z" style="fill:rgb(251,251,251);fill-rule:nonzero;"/>
            </g>
            <g transform="matrix(1,0,0,1,187.04126,354.886475)">
                <path d="M0,0C0.875,0.005 1.749,0.01 2.65,0.016C3.594,0.019 4.539,0.022 5.511,0.026C6.505,0.034 7.498,0.042 8.521,0.051C9.518,0.056 10.515,0.06 11.543,0.065C14.015,0.077 16.487,0.093 18.959,0.114C24.618,13.045 30.207,26.003 35.686,39.011C38.206,44.99 40.748,50.959 43.322,56.914C43.882,58.212 44.442,59.51 45.002,60.808C45.819,62.701 46.637,64.593 47.46,66.484C48.216,68.224 48.969,69.965 49.72,71.707C50.153,72.704 50.586,73.701 51.032,74.729C51.959,77.114 51.959,77.114 51.959,79.114L27.959,79.114C22.959,67.364 22.959,67.364 22.959,65.114L-7.041,65.114C-8.031,68.084 -9.021,71.054 -10.041,74.114C-10.701,75.764 -11.361,77.414 -12.041,79.114L-35.041,79.114C-33.153,72.821 -31.341,67.059 -28.705,61.133C-28.389,60.409 -28.073,59.685 -27.748,58.939C-26.725,56.599 -25.696,54.263 -24.666,51.926C-23.227,48.637 -21.792,45.346 -20.358,42.055C-19.997,41.228 -19.636,40.401 -19.264,39.548C-15.045,29.861 -10.983,20.109 -6.94,10.347C-6.188,8.538 -6.188,8.538 -5.42,6.692C-4.983,5.634 -4.545,4.576 -4.094,3.486C-2.611,0.145 -2.611,0.145 0,0Z" style="fill:rgb(249,249,249);fill-rule:nonzero;"/>
            </g>
            <g transform="matrix(1,0,0,1,609,356)">
                <path d="M0,0L23,0C23.056,5.327 23.056,5.327 23.113,10.762C23.16,14.204 23.211,17.646 23.262,21.088C23.296,23.479 23.324,25.869 23.346,28.26C23.38,31.699 23.432,35.136 23.488,38.574C23.495,39.642 23.501,40.71 23.508,41.81C23.58,48.915 23.58,48.915 27,55C29.926,57.786 31.925,58.412 35.938,58.375C40.084,58.229 42.831,57.881 46,55C49.68,49.444 49.472,44.129 49.512,37.695C49.53,36.616 49.548,35.537 49.566,34.425C49.62,30.992 49.654,27.559 49.688,24.125C49.721,21.792 49.755,19.458 49.791,17.125C49.878,11.417 49.938,5.709 50,0L72,0C72.074,7.383 72.129,14.766 72.165,22.15C72.18,24.659 72.2,27.168 72.226,29.677C72.263,33.294 72.28,36.91 72.293,40.527C72.308,41.64 72.324,42.753 72.34,43.9C72.342,54.109 70.311,62.005 63.422,69.781C55.727,77.411 45.957,79.361 35.438,79.5C24.811,79.347 15.741,76.972 7.91,69.426C4.501,65.097 2.722,60.188 1,55C0.505,53.515 0.505,53.515 0,52C-0.088,50.297 -0.118,48.591 -0.114,46.886C-0.113,45.845 -0.113,44.804 -0.113,43.732C-0.108,42.61 -0.103,41.488 -0.098,40.332C-0.096,39.182 -0.095,38.032 -0.093,36.847C-0.088,33.169 -0.075,29.491 -0.062,25.812C-0.057,23.321 -0.053,20.829 -0.049,18.338C-0.039,12.225 -0.019,6.113 0,0Z" style="fill:rgb(249,249,249);fill-rule:nonzero;"/>
            </g>
            <g transform="matrix(1,0,0,1,662.3125,460.5)">
                <path d="M0,0C1.382,0.017 1.382,0.017 2.792,0.034C13.755,0.346 22.418,3.788 31.688,9.5C30.245,13.652 28.186,16.8 25.562,20.312C24.838,21.288 24.114,22.264 23.367,23.27C22.813,24.006 22.259,24.742 21.688,25.5C18.659,24.841 16.05,23.82 13.25,22.5C7.187,19.779 1.349,18.728 -5.312,19.5C-5.973,20.16 -6.633,20.82 -7.312,21.5C-6.992,24.103 -6.992,24.103 -6.312,26.5C-0.298,28.601 5.653,30.544 11.875,31.938C20.687,34.092 27.586,37.811 32.688,45.5C34.888,52.101 34.65,60.303 31.781,66.691C27.442,73.867 21.526,77.058 13.688,79.5C12.781,79.79 12.781,79.79 11.855,80.086C-3.374,82.995 -18.582,79.018 -31.312,70.5C-33.184,68.277 -33.184,68.277 -34.312,66.5C-32.897,64.915 -31.48,63.332 -30.062,61.75C-29.274,60.868 -28.485,59.987 -27.672,59.078C-25.607,56.821 -23.495,54.643 -21.312,52.5C-20.426,53.242 -19.539,53.985 -18.625,54.75C-11.993,59.491 -2.488,62.692 5.688,61.5C8.634,60.418 8.634,60.418 10.688,58.5L10.688,54.5C4.691,52.199 -1.3,50.186 -7.5,48.5C-16.394,45.983 -23.096,43.49 -28.312,35.5C-31.262,29.368 -31.655,22.344 -29.402,15.895C-23.313,4.205 -12.646,-0.265 0,0Z" style="fill:rgb(249,249,249);fill-rule:nonzero;"/>
            </g>
            <g transform="matrix(1,0,0,1,475.0625,354.625)">
                <path d="M0,0C0.846,0.001 1.693,0.003 2.564,0.004C10.52,0.114 17.149,1.694 24.312,5.312C25.331,5.817 26.349,6.321 27.398,6.84C29.938,8.375 29.938,8.375 31.938,11.375C28.637,15.995 25.337,20.615 21.938,25.375C18.332,24.474 15.337,23.275 11.938,21.812C5.423,19.245 -0.132,18.813 -7.062,19.375L-7.062,25.375C-2.182,27.803 2.559,29.63 7.875,30.875C16.81,32.992 25.48,35.4 31.188,43.051C34.637,48.836 34.789,54.804 33.938,61.375C32.132,68.022 27.62,72.683 21.938,76.375C9.452,82.674 -4.535,81.583 -17.562,77.719C-23.938,75.271 -30.213,72.149 -34.062,66.375C-30.102,61.755 -26.142,57.135 -22.062,52.375C-19.654,53.872 -17.245,55.37 -14.836,56.867C-8.844,60.125 -3.856,60.647 2.812,60.5C3.596,60.491 4.38,60.482 5.188,60.473C7.104,60.449 9.021,60.413 10.938,60.375L10.938,53.375C9.945,53.144 8.952,52.914 7.93,52.676C-19.92,46.064 -19.92,46.064 -28.062,36.375C-31.079,31.067 -30.682,24.332 -30.062,18.375C-28.105,11.341 -23.293,6.781 -17.075,3.245C-11.244,0.447 -6.421,-0.187 0,0Z" style="fill:rgb(249,249,249);fill-rule:nonzero;"/>
            </g>
            <g transform="matrix(1,0,0,1,310,462)">
                <path d="M0,0L68,0L68,19L45,19L45,78L23,78L23,19L0,19L0,0Z" style="fill:rgb(250,250,250);fill-rule:nonzero;"/>
            </g>
            <g transform="matrix(1,0,0,1,566,462)">
                <path d="M0,0L23,0L23,58L60,58L60,78L0,78L0,0Z" style="fill:rgb(243,243,243);fill-rule:nonzero;"/>
            </g>
            <g transform="matrix(1,0,0,1,412,356)">
                <rect x="0" y="0" width="21" height="77" style="fill:rgb(254,254,254);fill-rule:nonzero;"/>
            </g>
            <g transform="matrix(1,0,0,1,520.152344,480.652344)">
                <path d="M0,0C5.079,2.271 8.865,5.641 11.848,10.348C14.029,16.677 13.989,24.779 11.16,30.848C8.19,35.889 4.313,38.465 -1.152,40.348C-6.861,41.072 -12.698,41.222 -17.582,37.859C-22.561,33.067 -25.502,27.674 -25.715,20.723C-25.266,13.807 -23.995,8.675 -18.715,3.973C-12.898,-0.686 -7.288,-2.209 0,0Z" style="fill:rgb(3,3,3);fill-rule:nonzero;"/>
            </g>
            <g transform="matrix(1,0,0,1,429.160156,480.613281)">
                <path d="M0,0C5.48,2.397 8.919,6.213 11.84,11.387C13.855,17.591 13.53,24.458 11.027,30.461C8.212,35.027 3.911,38.696 -1.16,40.387C-7.917,41.119 -13.648,40.6 -19.16,36.387C-24.915,30.087 -25.578,24.31 -25.5,15.914C-25.028,11.011 -23.662,7.845 -20.16,4.387C-17.873,2.713 -15.749,1.608 -13.16,0.387C-9.128,-1.629 -4.26,-1.209 0,0Z" style="fill:rgb(3,3,3);fill-rule:nonzero;"/>
            </g>
            <g transform="matrix(1,0,0,1,571,379)">
                <path d="M0,0C5.264,5.557 6.429,11.079 6.25,18.539C5.61,24.842 2.762,29.013 -2,33C-7.294,36.656 -12.773,36.936 -19,36C-24.675,33.79 -28.088,30.358 -31,25C-33.023,18.932 -32.808,11.725 -31,5.625C-27.494,1.023 -23.626,-3.106 -18.062,-5C-10.916,-5 -5.721,-4.79 0,0Z" style="fill:rgb(3,3,3);fill-rule:nonzero;"/>
            </g>
            <g transform="matrix(1,0,0,1,802,376)">
                <path d="M0,0C18.351,0 18.351,0 24.812,5.312C29.031,10.495 29.517,15.733 29.375,22.246C28.771,26.678 27.057,29.768 24,33C16.089,38.955 10.506,38 0,38L0,0Z" style="fill:rgb(2,2,2);fill-rule:nonzero;"/>
            </g>
            <g transform="matrix(1,0,0,1,267,375)">
                <path d="M0,0C2.846,-0.062 5.692,-0.124 8.625,-0.188C9.51,-0.215 10.395,-0.242 11.307,-0.27C16.283,-0.322 19.704,0.202 24,3C25.596,6.192 25.515,9.535 25,13C23.13,15.431 21.719,16.641 19,18C17.552,18.083 16.099,18.107 14.648,18.098C13.798,18.094 12.947,18.091 12.07,18.088C11.181,18.08 10.291,18.071 9.375,18.062C8.478,18.058 7.581,18.053 6.656,18.049C4.437,18.037 2.219,18.019 0,18L0,0Z" style="fill:rgb(7,7,7);fill-rule:nonzero;"/>
            </g>
            <g transform="matrix(1,0,0,1,195,382)">
                <path d="M0,0C2.227,3.34 3.649,6.793 5.125,10.5C5.402,11.177 5.679,11.854 5.965,12.551C7.152,15.515 8,17.777 8,21L-8,21C-5.969,13.625 -3.315,6.891 0,0Z" style="fill:rgb(20,20,20);fill-rule:nonzero;"/>
            </g>
        </g>
        <g transform="matrix(1.45748,0,0,1.412348,1549.030375,413.512277)">
            <path d="M0,0C13.298,8.067 17.753,27.428 21.492,41.512C24.38,53.45 26.34,65.6 28.441,77.695C28.793,79.709 29.145,81.723 29.497,83.737C30.194,87.731 30.876,91.726 31.55,95.724C33.187,105.277 34.86,114.481 38.492,123.512C38.785,124.246 39.077,124.98 39.378,125.736C41.06,129.299 42.193,130.403 45.93,131.762C49.517,131.811 49.517,131.811 52.055,129.762C58.537,121.958 62.049,112.02 65.959,102.784C80.742,67.935 80.742,67.935 92.492,62.512C99.604,60.141 107.171,60.942 113.949,63.992C120.816,68.096 126.415,73.843 131.117,80.262C136.518,87.58 143.819,91.576 152.73,93.046C156.383,93.498 159.879,93.643 163.557,93.654C164.225,93.657 164.893,93.661 165.58,93.664C167.016,93.671 168.452,93.677 169.889,93.68C172.163,93.688 174.437,93.703 176.711,93.722C183.172,93.774 189.634,93.822 196.095,93.838C200.058,93.848 204.021,93.877 207.985,93.919C209.491,93.931 210.998,93.936 212.505,93.934C214.609,93.932 216.711,93.954 218.815,93.982C220.011,93.988 221.207,93.993 222.439,93.999C226.1,94.614 227.296,95.566 229.492,98.512C229.883,101.527 229.883,101.527 229.742,104.762C229.706,105.839 229.67,106.917 229.633,108.027C229.563,109.257 229.563,109.257 229.492,110.512C224.663,112.062 220.597,112.767 215.478,112.786C214.815,112.791 214.152,112.797 213.469,112.802C211.297,112.816 209.125,112.815 206.953,112.812C205.425,112.816 203.897,112.821 202.368,112.825C199.169,112.833 195.97,112.833 192.771,112.827C188.706,112.822 184.642,112.838 180.578,112.862C177.42,112.877 174.263,112.877 171.106,112.874C169.609,112.875 168.113,112.88 166.616,112.89C148.007,113.001 133.421,109.185 119.492,96.512C112.492,89.386 110.512,85.852 109.492,85.512C108.894,84.831 108.296,84.15 107.68,83.449C105.597,81.273 105.597,81.273 102.555,80.949C98.501,81.694 96.762,83.229 94.492,86.512C91.026,92.451 88.381,98.728 85.777,105.077C81.049,116.609 75.485,127.587 69.492,138.512C68.982,139.479 68.471,140.445 67.945,141.441C66.233,143.881 64.687,144.894 62.055,146.262C60.912,146.873 60.912,146.873 59.746,147.496C52.733,150.656 43.496,150.781 36.18,148.512C27.032,144.333 21.875,135.581 18.492,126.512C12.332,106.721 9.512,85.528 5.674,65.18C5.158,62.446 4.637,59.712 4.109,56.98C3.633,54.515 3.166,52.049 2.709,49.58C0.624,38.861 -2.137,28.491 -8.508,19.512C-11.881,19.372 -11.881,19.372 -15.508,20.512C-19.234,25.524 -21.014,32.327 -22.945,38.199C-23.247,39.116 -23.548,40.032 -23.859,40.976C-28.336,54.897 -31.296,68.987 -33.758,83.387C-35.799,95.292 -38.311,107.053 -41.008,118.824C-41.193,119.645 -41.379,120.466 -41.57,121.312C-50.724,161.688 -50.724,161.688 -64.695,171.824C-70.512,174.827 -76.86,175.253 -83.133,173.512C-92.97,169.643 -98.343,161.368 -102.625,152.091C-103.631,149.625 -104.556,147.146 -105.445,144.637C-105.78,143.703 -106.114,142.768 -106.458,141.806C-112.125,125.442 -115.811,108.506 -119.008,91.512C-120.505,83.623 -122.372,76.039 -125.008,68.449C-125.28,67.658 -125.553,66.868 -125.834,66.053C-127.731,60.879 -130.022,55.825 -133.508,51.512C-136.426,49.941 -136.426,49.941 -139.508,50.512C-143.771,54.06 -145.968,57.895 -148.008,62.949C-148.333,63.73 -148.657,64.51 -148.992,65.315C-151.444,71.399 -153.579,77.578 -155.668,83.793C-155.947,84.621 -156.226,85.449 -156.514,86.303C-157.923,90.497 -159.314,94.696 -160.676,98.906C-164.329,110.032 -168.239,121.746 -177.508,129.512C-178.107,130.021 -178.707,130.53 -179.324,131.055C-184.518,134.52 -192.445,135.262 -198.551,134.168C-212.248,129.575 -220.57,115.875 -227.443,104.156C-231.518,97.168 -231.518,97.168 -238.508,93.512C-244.794,93.762 -250.766,98.275 -256.061,101.383C-268.01,108.369 -278.902,112.867 -292.82,112.742C-293.674,112.742 -294.528,112.741 -295.407,112.741C-297.199,112.738 -298.991,112.73 -300.782,112.718C-303.501,112.699 -306.219,112.697 -308.938,112.697C-310.69,112.692 -312.443,112.687 -314.195,112.68C-314.996,112.679 -315.796,112.677 -316.62,112.676C-320.558,112.644 -324.477,112.505 -328.402,112.189C-329.119,112.132 -329.835,112.076 -330.573,112.018C-333.036,111.374 -333.97,110.525 -335.508,108.512C-337.044,101.711 -337.044,101.711 -335.195,97.574C-333.508,95.512 -333.508,95.512 -331.508,94.512C-328.503,94.39 -325.518,94.326 -322.512,94.301C-320.654,94.273 -318.797,94.244 -316.939,94.215C-314.017,94.174 -311.095,94.137 -308.172,94.11C-294.543,93.976 -282.974,93.326 -270.758,86.762C-269.395,86.056 -268.032,85.351 -266.668,84.648C-265.985,84.294 -265.302,83.94 -264.598,83.576C-261.167,81.829 -257.686,80.197 -254.195,78.574C-253.567,78.28 -252.939,77.986 -252.292,77.683C-244.889,74.244 -237.796,72.961 -229.777,75.312C-218.296,80.492 -212.391,91.492 -206.354,101.959C-203.17,107.312 -199.97,112.255 -194.508,115.512C-190.79,116.267 -190.79,116.267 -187.508,114.512C-186.116,112.47 -185.297,110.509 -184.467,108.183C-183.603,105.778 -182.655,103.438 -181.668,101.082C-179.071,94.625 -177.133,87.985 -175.133,81.324C-163.192,42.215 -163.192,42.215 -146.508,32.512C-140.385,29.873 -134.56,30.042 -128.332,32.301C-115.46,38.264 -110.233,51.971 -105.508,64.512C-100.826,77.739 -98.271,91.436 -95.63,105.176C-93.768,114.819 -91.702,124.296 -88.82,133.699C-88.411,135.041 -88.411,135.041 -87.992,136.41C-86.285,141.73 -84.226,146.623 -81.508,151.512C-78.34,153.095 -75.993,152.932 -72.508,152.512C-68.451,147.698 -66.84,142.227 -65.07,136.262C-64.616,134.741 -64.616,134.741 -64.152,133.19C-60.349,120.031 -58.088,106.598 -55.744,93.119C-42.105,14.832 -42.105,14.832 -24.723,1.977C-16.702,-3.328 -8.837,-3.828 0,0Z" style="fill:rgb(194,131,44);fill-rule:nonzero;"/>
        </g>
    </g>
</svg>
